<?xml version="1.0" standalone="no"?>
<!DOCTYPE svg PUBLIC "-//W3C//DTD SVG 20010904//EN"
 "http://www.w3.org/TR/2001/REC-SVG-20010904/DTD/svg10.dtd">
<svg version="1.0" xmlns="http://www.w3.org/2000/svg"
 width="512.000000pt" height="512.000000pt" viewBox="0 0 512.000000 512.000000"
 preserveAspectRatio="xMidYMid meet">

<g transform="translate(0.000000,512.000000) scale(0.100000,-0.100000)"
fill="#FFFFFF" stroke="none">
<path d="M1567 4764 c-249 -45 -458 -210 -554 -439 l-22 -50 -203 -5 c-183 -5
-207 -7 -243 -27 -77 -41 -115 -105 -115 -193 0 -84 53 -161 132 -194 30 -13
79 -16 234 -16 195 0 196 0 202 -22 12 -46 83 -175 127 -230 90 -114 231 -209
380 -255 47 -14 92 -18 205 -18 130 1 153 3 225 28 44 14 109 43 144 64 136
80 269 234 320 372 l23 61 1050 0 c925 0 1053 2 1086 16 79 33 132 110 132
194 0 88 -38 152 -115 193 l-40 22 -1056 3 -1057 2 -23 57 c-75 184 -235 336
-429 404 -135 48 -263 58 -403 33z m284 -446 c111 -51 171 -142 173 -264 2
-175 -141 -318 -319 -318 -130 0 -250 82 -295 202 -28 73 -24 186 8 248 21 41
81 102 124 125 86 46 216 49 309 7z"/>
<path d="M3307 3299 c-254 -34 -485 -216 -584 -460 l-28 -69 -1056 0 -1056 0
-44 -23 c-24 -13 -57 -43 -74 -66 -27 -39 -30 -50 -30 -120 0 -66 4 -83 25
-114 14 -21 43 -50 64 -65 l39 -27 1066 -3 1066 -2 28 -69 c91 -225 291 -394
532 -452 81 -19 258 -14 348 10 224 59 417 232 506 453 l23 57 212 3 c208 3
213 4 249 28 21 14 50 43 65 64 24 35 27 49 27 117 0 71 -3 81 -31 120 -18 24
-51 54 -75 66 -40 22 -54 23 -245 23 l-202 0 -27 68 c-84 209 -284 387 -497
441 -93 24 -214 32 -301 20z m247 -453 c60 -29 113 -82 148 -148 19 -36 23
-58 23 -138 0 -80 -4 -102 -23 -138 -35 -66 -88 -119 -150 -149 -76 -38 -191
-40 -267 -5 -135 62 -213 210 -185 350 15 72 31 103 83 159 95 103 245 131
371 69z"/>
<path d="M1545 1795 c-234 -51 -438 -225 -530 -452 l-24 -58 -208 -5 c-225 -5
-241 -9 -294 -67 -41 -43 -59 -87 -59 -143 0 -88 38 -152 115 -193 36 -20 60
-22 243 -27 l203 -5 34 -79 c87 -201 276 -362 495 -422 101 -28 292 -26 390 5
232 72 399 223 490 443 l24 58 1055 2 1056 3 45 25 c67 38 103 96 108 174 5
71 -14 120 -65 168 -64 61 -3 58 -1151 58 l-1049 0 -22 59 c-54 150 -204 315
-353 390 -115 57 -217 81 -342 80 -56 0 -128 -6 -161 -14z m238 -420 c104 -27
168 -82 216 -185 69 -149 -1 -335 -155 -411 -41 -20 -64 -24 -139 -24 -78 0
-97 4 -141 27 -68 36 -136 113 -157 178 -59 183 39 367 222 416 62 17 87 17
154 -1z"/>
</g>
</svg>
