<?xml version="1.0" standalone="no"?>
<!DOCTYPE svg PUBLIC "-//W3C//DTD SVG 20010904//EN"
 "http://www.w3.org/TR/2001/REC-SVG-20010904/DTD/svg10.dtd">
<svg version="1.0" xmlns="http://www.w3.org/2000/svg"
 width="512.000000pt" height="512.000000pt" viewBox="0 0 512.000000 512.000000"
 preserveAspectRatio="xMidYMid meet">
<metadata>
Created by potrace 1.16, written by Peter Selinger 2001-2019
</metadata>
<g transform="translate(0.000000,512.000000) scale(0.100000,-0.100000)"
fill="#FFFFFF" stroke="none">
<path d="M2625 4294 c-21 -14 -540 -384 -1153 -822 -726 -518 -1121 -807
-1133 -827 -26 -41 -25 -129 0 -172 24 -38 2275 -1650 2334 -1670 65 -23 146
5 184 64 17 25 18 69 23 585 l5 558 820 -586 c451 -323 834 -595 850 -605 41
-26 129 -26 173 1 18 11 41 34 52 52 20 33 20 54 20 1688 0 1634 0 1655 -20
1688 -29 47 -76 72 -136 72 -42 0 -61 -7 -110 -39 -32 -21 -417 -293 -854
-604 l-795 -566 -5 557 c-5 516 -6 560 -23 585 -46 71 -159 91 -232 41z"/>
</g>
</svg>
