<?xml version="1.0" standalone="no"?>
<!DOCTYPE svg PUBLIC "-//W3C//DTD SVG 20010904//EN"
 "http://www.w3.org/TR/2001/REC-SVG-20010904/DTD/svg10.dtd">
<svg version="1.0" xmlns="http://www.w3.org/2000/svg"
 width="512.000000pt" height="512.000000pt" viewBox="0 0 512.000000 512.000000"
 preserveAspectRatio="xMidYMid meet">

<g transform="translate(0.000000,512.000000) scale(0.100000,-0.100000)"
fill="#FFFFFF" stroke="none">
<path d="M4097 4755 c-132 -36 -118 -23 -847 -751 -377 -376 -690 -684 -695
-684 -5 0 -313 303 -685 674 -621 620 -680 676 -740 704 -85 40 -137 51 -235
52 -151 0 -263 -47 -371 -154 -107 -108 -154 -220 -154 -371 0 -44 7 -104 15
-134 36 -136 20 -119 741 -841 371 -372 674 -680 674 -685 0 -5 -303 -313
-674 -685 -721 -722 -705 -705 -741 -841 -23 -84 -19 -205 8 -292 99 -311 444
-455 746 -311 48 23 158 128 736 705 l680 679 665 -666 c448 -448 683 -676
720 -698 84 -51 144 -69 255 -74 89 -4 109 -1 179 22 177 60 305 193 351 367
19 69 19 199 0 268 -36 136 -20 119 -741 841 -371 372 -674 680 -674 685 0 5
308 318 684 695 731 733 715 715 751 851 8 30 15 90 15 134 0 151 -47 263
-154 371 -109 109 -221 154 -376 153 -47 0 -107 -7 -133 -14z"/>
</g>
</svg>
