<?xml version="1.0" standalone="no"?>
<!DOCTYPE svg PUBLIC "-//W3C//DTD SVG 20010904//EN"
 "http://www.w3.org/TR/2001/REC-SVG-20010904/DTD/svg10.dtd">
<svg version="1.0" xmlns="http://www.w3.org/2000/svg"
 width="477.000000pt" height="361.000000pt" viewBox="0 0 477.000000 361.000000"
 preserveAspectRatio="xMidYMid meet">

<g transform="translate(0.000000,361.000000) scale(0.100000,-0.100000)"
fill="white" stroke="none">
<path d="M4185 3590 c-127 -40 -226 -140 -265 -268 -20 -63 -20 -98 -20 -1517
0 -1419 0 -1454 20 -1517 40 -131 139 -229 273 -270 90 -27 234 -22 320 11
115 45 199 137 237 259 20 63 20 98 20 1516 0 1177 -3 1460 -14 1501 -37 142
-133 242 -274 285 -84 26 -214 26 -297 0z"/>
<path d="M2910 2659 c-112 -19 -218 -92 -278 -191 -62 -104 -62 -95 -62 -1134
0 -589 4 -961 10 -995 25 -133 128 -263 247 -311 50 -19 76 -23 184 -23 125 0
125 0 201 38 88 43 152 107 195 195 l28 57 0 1035 0 1035 -31 65 c-58 123
-178 211 -316 230 -74 11 -103 11 -178 -1z"/>
<path d="M1556 1979 c-111 -27 -219 -117 -273 -227 l-28 -57 0 -700 0 -700 28
-57 c43 -88 107 -152 195 -195 76 -38 76 -38 201 -38 108 0 134 4 184 23 119
48 222 178 247 311 14 76 13 1239 -1 1316 -24 131 -128 260 -246 306 -65 25
-237 36 -307 18z"/>
<path d="M315 1496 c-123 -31 -241 -131 -287 -243 -23 -57 -23 -65 -26 -473
-4 -469 -1 -492 68 -599 74 -115 182 -171 342 -179 118 -5 205 17 288 75 61
42 132 138 152 206 10 31 13 153 13 477 0 433 0 435 -23 493 -31 75 -118 170
-191 206 -99 50 -227 64 -336 37z"/>
</g>
</svg>
