<?xml version="1.0" standalone="no"?>
<!DOCTYPE svg PUBLIC "-//W3C//DTD SVG 20010904//EN"
 "http://www.w3.org/TR/2001/REC-SVG-20010904/DTD/svg10.dtd">
<svg version="1.0" xmlns="http://www.w3.org/2000/svg"
 width="200.000000pt" height="200.000000pt" viewBox="0 0 200.000000 200.000000"
 preserveAspectRatio="xMidYMid meet">
<metadata>
Created by potrace 1.16, written by Peter Selinger 2001-2019
</metadata>
<g transform="translate(0.000000,200.000000) scale(0.100000,-0.100000)"
fill="#FFFFFF" stroke="none">
<path d="M732 1584 l-273 -225 -161 -15 c-90 -9 -174 -22 -189 -30 -58 -29
-59 -36 -59 -312 0 -338 -12 -322 252 -347 l157 -14 275 -226 c239 -195 279
-225 309 -225 71 0 67 -51 67 812 0 738 -1 776 -18 791 -10 10 -34 17 -53 16
-29 0 -72 -31 -307 -225z"/>
<path d="M1387 1252 c-31 -32 -57 -62 -57 -67 0 -5 39 -49 87 -97 l88 -88 -88
-88 c-48 -48 -87 -92 -87 -98 0 -15 114 -124 131 -124 8 0 52 38 99 85 l85 85
85 -85 c47 -47 92 -85 101 -85 21 0 119 102 119 125 0 11 -36 55 -82 102 l-83
83 83 83 c48 48 82 91 82 103 0 22 -98 124 -120 124 -8 0 -53 -38 -100 -85
l-85 -85 -85 85 c-47 47 -92 85 -100 85 -9 0 -41 -26 -73 -58z"/>
</g>
</svg>
