<?xml version="1.0" standalone="no"?>
<!DOCTYPE svg PUBLIC "-//W3C//DTD SVG 20010904//EN"
 "http://www.w3.org/TR/2001/REC-SVG-20010904/DTD/svg10.dtd">
<svg version="1.0" xmlns="http://www.w3.org/2000/svg"
 width="512.000000pt" height="512.000000pt" viewBox="0 0 512.000000 512.000000"
 preserveAspectRatio="xMidYMid meet">

<g transform="translate(0.000000,512.000000) scale(0.100000,-0.100000)"
fill="#FFFFFF" stroke="none">
<path d="M1355 4471 c-11 -5 -31 -21 -45 -36 l-25 -27 0 -1849 0 -1849 33 -32
32 -33 410 0 410 0 32 33 33 32 0 1850 0 1850 -33 32 -32 33 -398 2 c-218 1
-406 -2 -417 -6z"/>
<path d="M2955 4471 c-11 -5 -31 -21 -45 -36 l-25 -27 0 -1849 0 -1849 33 -32
32 -33 410 0 410 0 32 33 33 32 0 1850 0 1850 -33 32 -32 33 -398 2 c-218 1
-406 -2 -417 -6z"/>
</g>
</svg>
