<?xml version="1.0" standalone="no"?>
<!DOCTYPE svg PUBLIC "-//W3C//DTD SVG 20010904//EN"
 "http://www.w3.org/TR/2001/REC-SVG-20010904/DTD/svg10.dtd">
<svg version="1.0" xmlns="http://www.w3.org/2000/svg"
 width="200.000000pt" height="200.000000pt" viewBox="0 0 200.000000 200.000000"
 preserveAspectRatio="xMidYMid meet">

<g transform="translate(0.000000,200.000000) scale(0.100000,-0.100000)"
fill="#FFFFFF" stroke="none">
<path d="M336 1873 c-50 -159 -115 -495 -102 -528 6 -16 16 -17 91 -11 161 13
443 60 508 85 15 6 27 15 27 21 0 5 -28 40 -61 77 l-61 68 28 12 c54 22 168
36 254 30 295 -20 535 -238 587 -535 34 -190 -27 -391 -162 -541 -75 -83 -198
-156 -312 -185 -79 -21 -236 -21 -317 0 -177 45 -329 169 -420 342 -54 101
-86 135 -146 153 -48 15 -85 6 -120 -30 -61 -60 -59 -144 4 -269 119 -235 335
-410 601 -485 90 -25 289 -34 392 -17 356 57 656 326 754 675 64 232 37 477
-77 693 -233 442 -765 622 -1227 415 l-58 -26 -67 66 c-37 37 -73 67 -79 67
-7 0 -23 -35 -37 -77z"/>
</g>
</svg>
