<?xml version="1.0" standalone="no"?>
<!DOCTYPE svg PUBLIC "-//W3C//DTD SVG 20010904//EN"
 "http://www.w3.org/TR/2001/REC-SVG-20010904/DTD/svg10.dtd">
<svg version="1.0" xmlns="http://www.w3.org/2000/svg"
 width="512.000000pt" height="512.000000pt" viewBox="0 0 512.000000 512.000000"
 preserveAspectRatio="xMidYMid meet">

<g transform="translate(0.000000,512.000000) scale(0.100000,-0.100000)"
fill="#FFFFFF" stroke="none">
<path d="M2359 4067 c-24 -12 -282 -213 -574 -447 l-530 -425 -270 -5 -271 -5
-66 -33 c-73 -36 -123 -86 -160 -161 -23 -46 -23 -49 -23 -431 0 -382 0 -385
23 -431 37 -75 87 -125 160 -161 l66 -33 271 -5 270 -5 530 -425 c292 -234
550 -435 574 -447 78 -40 138 -23 179 50 16 30 17 125 17 1457 0 1332 -1 1427
-17 1457 -41 73 -101 90 -179 50z"/>
<path d="M3145 3642 c-46 -21 -92 -71 -101 -108 -11 -43 2 -120 25 -152 12
-18 56 -49 102 -74 173 -92 291 -209 374 -369 67 -131 88 -216 88 -374 1 -160
-15 -232 -82 -370 -82 -168 -201 -288 -380 -383 -100 -53 -124 -85 -129 -167
-3 -50 0 -66 20 -95 30 -45 78 -77 127 -85 87 -15 281 97 442 255 181 177 282
361 335 612 22 100 24 340 5 438 -62 314 -246 596 -501 766 -171 113 -252 140
-325 106z"/>
<path d="M2855 3017 c-58 -33 -87 -88 -82 -160 4 -70 23 -98 101 -150 126 -84
126 -210 0 -294 -78 -52 -97 -80 -101 -150 -9 -146 127 -226 266 -156 193 96
311 335 268 544 -23 112 -61 183 -142 265 -117 118 -220 152 -310 101z"/>
</g>
</svg>
